<svg xmlns="http://www.w3.org/2000/svg" fill="none" viewBox="0 0 24 20"><path fill="#2D383F" d="m23.415 19.188-4.04-9.398L15.558.907a.477.477 0 0 0-.877 0l-3.407 7.905-1.335 3.106-2.93-6.76a.477.477 0 0 0-.877 0l-2.753 6.359-3.34 7.666a.477.477 0 0 0 .44.668h22.498a.477.477 0 0 0 .438-.663Zm-8.3-16.892 3.096 7.198h-1.088l-1.965-2.17a.477.477 0 0 0-.754.062l-.735 1.135h-1.23l2.676-6.225ZM6.57 6.532l2.447 5.658H7.682a.477.477 0 0 0-.4.22l-.478.758-1.23-1.737a.477.477 0 0 0-.391-.205h-.635l2.023-4.694ZM1.228 18.897l2.905-6.717h.801l1.489 2.123a.477.477 0 0 0 .391.205.477.477 0 0 0 .391-.22l.735-1.135h1.488l2.486 5.725-10.686.019Zm11.73 0-2.5-5.772 1.57-3.65h1.908a.477.477 0 0 0 .401-.22l.53-.815 1.688 1.865c.09.1.219.157.353.158h1.708l3.63 8.448-9.288-.014Z"/></svg>